<?xml version="1.0" standalone="no"?>
<!DOCTYPE svg PUBLIC "-//W3C//DTD SVG 20010904//EN"
 "http://www.w3.org/TR/2001/REC-SVG-20010904/DTD/svg10.dtd">
<svg version="1.0" xmlns="http://www.w3.org/2000/svg"
 width="3000.000000pt" height="3000.000000pt" viewBox="0 0 3000.000000 3000.000000"
 preserveAspectRatio="xMidYMid meet">
<metadata>
Created by potrace 1.14, written by Peter Selinger 2001-2017
</metadata>
<g transform="translate(0.000000,3000.000000) scale(0.100000,-0.100000)"
fill="#000000" stroke="none">
<path d="M17605 29943 c-205 -47 -387 -131 -547 -253 -67 -52 -189 -177 -252
-260 -70 -92 -157 -268 -186 -375 -31 -113 -39 -378 -16 -525 38 -242 123
-474 301 -825 103 -203 141 -275 189 -360 12 -22 40 -71 61 -110 21 -38 51
-92 67 -118 15 -26 28 -50 28 -52 0 -2 17 -41 39 -87 21 -46 60 -132 86 -193
26 -60 58 -134 71 -163 13 -29 24 -55 24 -57 0 -3 9 -24 19 -48 37 -79 176
-439 233 -602 5 -16 14 -39 18 -50 35 -83 233 -724 255 -825 2 -8 16 -60 30
-115 15 -55 28 -109 30 -120 2 -11 10 -47 19 -80 30 -119 105 -486 121 -595 3
-19 7 -46 10 -60 2 -14 7 -43 10 -65 3 -23 7 -52 10 -65 3 -14 7 -45 10 -70 3
-25 7 -56 10 -70 5 -34 19 -151 20 -175 2 -25 15 -157 20 -205 7 -57 16 -196
25 -355 8 -147 5 -583 -4 -592 -3 -3 -26 0 -53 6 -28 6 -133 9 -253 7 -183 -2
-215 -5 -300 -28 -210 -57 -463 -173 -673 -311 -76 -49 -272 -191 -287 -207
-3 -3 -32 -27 -65 -55 -33 -27 -78 -65 -100 -85 -74 -66 -420 -415 -474 -477
-30 -35 -60 -63 -67 -63 -7 0 -33 6 -56 13 -73 23 -158 48 -176 52 -9 2 -75
20 -147 41 -128 38 -133 39 -295 39 -135 0 -176 -3 -225 -19 -104 -34 -207
-85 -284 -141 -46 -34 -154 -149 -190 -202 -100 -151 -132 -256 -137 -453 -4
-143 -3 -149 36 -305 22 -88 47 -182 55 -210 13 -44 81 -296 91 -335 2 -8 14
-55 28 -105 13 -49 37 -142 54 -205 57 -216 118 -341 225 -456 110 -119 287
-220 457 -260 67 -16 257 -12 344 7 109 23 309 117 324 152 2 4 8 7 14 7 10 0
52 41 244 240 56 58 118 120 137 138 l34 33 198 -61 c109 -33 207 -62 219 -65
11 -2 22 -4 24 -4 3 -1 -75 -117 -90 -136 -17 -20 -534 -790 -620 -925 -83
-128 -218 -351 -218 -359 0 -5 -4 -11 -8 -13 -5 -1 -34 -48 -66 -103 -31 -55
-61 -107 -66 -115 -97 -163 -363 -680 -458 -890 -11 -25 -34 -76 -51 -113 -17
-38 -31 -71 -31 -73 0 -3 -10 -26 -21 -52 -45 -101 -59 -132 -119 -287 -106
-273 -112 -288 -132 -350 -11 -33 -26 -73 -33 -90 -20 -48 -140 -416 -165
-510 -4 -16 -19 -68 -33 -115 -48 -162 -85 -303 -86 -327 -1 -18 -21 -16 -21
1 0 17 -59 238 -125 466 -9 30 -18 64 -20 74 -8 37 -116 372 -166 516 -28 80
-52 150 -53 155 -2 6 -6 17 -9 25 -3 8 -22 60 -41 115 -20 55 -54 147 -76 205
-22 58 -42 112 -45 120 -11 47 -276 667 -365 855 -130 276 -409 825 -460 906
-9 13 -22 38 -30 54 -8 17 -17 32 -20 35 -3 3 -11 16 -17 30 -12 25 -124 215
-218 371 -27 46 -57 94 -65 108 -8 15 -25 40 -37 58 -13 17 -23 34 -23 37 0 3
-13 25 -29 48 -16 24 -87 131 -158 238 -122 183 -202 302 -220 325 -5 6 -30
42 -57 80 -27 39 -81 113 -119 165 -122 165 -196 265 -205 275 -4 6 -26 35
-49 66 -23 31 -47 62 -55 70 -7 8 -29 37 -47 64 -19 28 -38 52 -42 55 -4 3
-42 52 -86 110 -43 58 -86 114 -96 125 -9 11 -39 50 -66 87 l-49 67 56 12 c66
13 177 55 248 94 78 43 234 147 234 156 0 5 5 9 10 9 13 0 60 41 181 159 l87
84 139 2 c146 2 194 12 303 63 82 38 138 78 211 151 166 167 225 322 216 566
l-4 130 -83 250 c-111 339 -148 413 -267 532 -51 51 -99 93 -108 93 -8 0 -15
4 -15 8 0 13 -135 77 -205 98 -86 26 -306 26 -390 1 -125 -38 -224 -95 -299
-170 -40 -41 -39 -41 -141 -21 -41 8 -202 24 -262 27 l-62 2 54 85 c59 93 76
122 149 257 l50 91 215 4 c213 4 217 5 311 37 137 48 227 101 319 189 68 65
133 151 171 228 24 48 37 63 49 60 62 -20 168 -34 245 -34 211 0 413 71 621
218 108 76 120 87 251 215 l103 100 143 0 c149 0 187 7 298 57 133 60 288 215
348 348 49 110 57 150 57 295 0 133 -2 146 -34 245 -19 58 -35 107 -36 110 -1
3 -4 12 -8 20 -3 8 -28 83 -55 165 -79 236 -97 270 -207 381 -147 150 -327
221 -530 211 -178 -10 -337 -78 -454 -195 -36 -36 -34 -36 -166 -16 -11 1 -49
7 -85 12 -36 5 -129 10 -206 11 -123 2 -180 -3 -307 -25 -94 -16 -249 -81
-357 -149 -59 -37 -210 -190 -240 -243 -22 -39 -44 -53 -52 -33 -5 14 -136 94
-212 130 -92 44 -238 74 -338 69 -68 -3 -75 -1 -63 12 8 8 42 44 77 80 69 72
185 223 237 311 33 56 34 56 90 63 108 11 147 23 269 84 166 82 297 236 365
429 26 77 31 104 33 210 4 179 -29 281 -166 512 -33 56 -60 105 -60 110 0 5
-3 11 -7 13 -5 2 -19 23 -32 48 -74 141 -189 279 -292 348 -65 44 -168 89
-241 106 -92 21 -259 19 -354 -5 -168 -43 -344 -165 -424 -294 -21 -34 -23
-35 -88 -36 -37 0 -78 -2 -92 -4 -14 -2 -52 -6 -85 -9 -33 -3 -69 -7 -80 -10
-27 -5 -95 -17 -125 -22 -14 -3 -34 -7 -45 -10 -11 -3 -29 -8 -40 -11 -11 -3
-17 -2 -14 1 4 4 3 24 -3 44 -5 20 -11 50 -14 66 -21 111 -127 326 -219 445
-17 22 -189 195 -211 212 -47 37 -144 99 -153 99 -6 0 -11 4 -11 8 0 17 -184
91 -320 129 -88 25 -110 27 -295 27 -110 1 -216 -2 -235 -5 -178 -33 -315 -94
-490 -216 -53 -37 -254 -241 -308 -313 -31 -41 -59 -77 -62 -80 -9 -8 -107
-163 -140 -222 -59 -103 -209 -414 -245 -508 -21 -52 -43 -108 -51 -125 -42
-92 -162 -450 -230 -690 -23 -79 -71 -262 -90 -340 -13 -55 -28 -116 -34 -135
-5 -19 -17 -71 -26 -115 -23 -116 -23 -118 -29 -145 -8 -37 -13 -63 -19 -106
-4 -22 -8 -46 -11 -54 -3 -14 -13 -81 -20 -145 -6 -50 -13 -98 -19 -135 -3
-19 -8 -59 -11 -89 -3 -30 -6 -55 -8 -55 -31 -10 -165 -91 -177 -107 -3 -3
-142 -9 -310 -12 -168 -4 -321 -9 -340 -12 -19 -3 -71 -10 -115 -15 -162 -22
-370 -73 -503 -125 -71 -28 -250 -113 -267 -127 -5 -5 -32 -23 -60 -41 -69
-44 -226 -198 -285 -279 -108 -147 -178 -311 -217 -513 -13 -63 -15 -361 -3
-430 18 -107 57 -268 80 -330 5 -11 14 -36 21 -55 59 -162 201 -404 319 -545
44 -53 237 -245 246 -245 5 0 23 -13 39 -28 61 -56 195 -133 345 -200 l25 -11
-26 0 c-63 -2 -200 -56 -297 -119 -64 -40 -169 -141 -196 -188 l-19 -31 -115
-7 c-194 -12 -321 -35 -484 -87 -67 -22 -251 -107 -256 -119 -2 -4 -13 1 -25
11 -12 10 -35 31 -52 45 -74 64 -331 252 -403 295 -15 9 -67 42 -117 73 -77
47 -412 220 -526 270 -177 78 -546 190 -694 211 -23 3 -52 7 -65 10 -13 3 -71
7 -129 11 -334 19 -692 -121 -933 -367 -185 -189 -300 -415 -348 -684 -11 -63
-11 -386 0 -429 5 -17 11 -44 13 -61 8 -51 57 -184 94 -259 50 -97 101 -165
208 -273 144 -148 301 -255 589 -404 240 -124 265 -138 318 -175 233 -164 447
-458 579 -794 51 -130 121 -386 135 -490 3 -25 7 -47 9 -50 2 -3 6 -30 10 -60
4 -30 9 -66 11 -80 29 -204 23 -628 -12 -925 -9 -78 -23 -186 -28 -210 -2 -11
-7 -47 -11 -80 -3 -32 -8 -62 -10 -65 -2 -3 -6 -30 -10 -60 -3 -30 -8 -62 -10
-70 -4 -14 -6 -27 -20 -110 -6 -38 -37 -202 -60 -320 -8 -41 -17 -91 -21 -110
-3 -19 -12 -71 -20 -115 -8 -44 -21 -116 -29 -160 -8 -44 -17 -91 -20 -105 -4
-14 -8 -41 -11 -60 -2 -19 -8 -57 -14 -85 -9 -50 -18 -103 -25 -160 -3 -16 -7
-41 -10 -55 -3 -14 -7 -47 -10 -75 -3 -27 -8 -63 -10 -80 -3 -16 -7 -50 -10
-75 -3 -25 -7 -58 -10 -75 -2 -16 -7 -61 -10 -100 -3 -38 -8 -92 -11 -120 -24
-210 -23 -917 1 -1140 2 -22 10 -92 16 -155 6 -63 13 -123 14 -132 2 -9 7 -48
10 -85 4 -37 9 -71 11 -74 2 -4 6 -26 9 -50 3 -24 7 -55 10 -69 8 -39 45 -241
51 -280 3 -19 10 -43 15 -52 5 -10 8 -18 6 -18 -7 0 62 -291 93 -395 88 -293
152 -488 180 -550 5 -11 27 -69 49 -128 37 -98 50 -129 96 -232 7 -16 25 -59
40 -95 28 -67 245 -501 254 -510 3 -3 17 -27 31 -55 21 -43 176 -302 274 -460
51 -82 130 -199 144 -213 6 -8 17 -23 23 -34 11 -20 119 -172 166 -233 35 -45
36 -47 68 -90 57 -77 145 -187 207 -260 24 -28 58 -70 76 -93 19 -22 41 -50
50 -60 36 -41 139 -158 187 -211 64 -71 613 -620 686 -686 30 -27 82 -75 116
-105 33 -30 73 -66 89 -79 16 -14 61 -52 100 -85 39 -34 80 -68 90 -76 30 -24
127 -104 140 -115 6 -5 26 -21 44 -35 19 -14 44 -35 57 -47 13 -12 34 -28 46
-37 20 -14 0 -15 -223 -16 -135 -1 -256 -3 -270 -5 -14 -1 -68 -6 -120 -10
-52 -4 -97 -8 -100 -10 -3 -1 -30 -6 -60 -10 -30 -4 -66 -8 -80 -10 -189 -24
-453 -94 -655 -172 -217 -85 -446 -195 -650 -313 -22 -13 -49 -28 -60 -34 -11
-6 -34 -21 -52 -33 -17 -13 -34 -23 -36 -23 -10 0 -171 -112 -292 -204 -100
-76 -409 -369 -464 -440 -96 -124 -143 -200 -208 -336 -101 -208 -128 -340
-120 -577 4 -126 10 -175 30 -243 59 -204 142 -343 294 -491 139 -135 300
-224 495 -273 97 -25 122 -27 269 -25 88 1 184 7 213 14 154 36 265 82 386
161 69 46 93 65 180 148 143 136 312 239 495 301 134 45 451 70 585 45 25 -4
65 -10 90 -13 238 -28 633 -163 960 -327 207 -104 320 -171 336 -200 7 -14 35
-70 62 -125 46 -93 63 -126 137 -260 37 -68 247 -383 287 -432 18 -22 47 -57
63 -79 35 -44 134 -161 185 -219 102 -114 340 -341 425 -406 17 -13 35 -29 40
-35 28 -33 451 -334 469 -334 3 0 24 -13 48 -28 80 -54 354 -195 469 -242 30
-13 77 -33 106 -46 28 -13 58 -24 66 -24 7 0 17 -3 21 -8 4 -4 11 -7 14 -8 4
0 21 -6 37 -13 17 -7 48 -20 70 -28 50 -18 360 -109 400 -117 17 -4 39 -8 50
-10 11 -3 49 -11 85 -20 71 -16 86 -19 235 -41 106 -16 147 -20 290 -32 115
-10 643 -10 755 -1 47 4 117 10 155 13 39 3 88 8 110 11 22 3 54 7 70 9 17 2
78 12 138 21 59 9 109 15 112 13 2 -3 6 -301 8 -664 2 -363 6 -671 10 -685 4
-14 10 -38 13 -54 2 -16 7 -32 9 -36 2 -3 6 -18 9 -33 5 -27 20 -75 40 -132
24 -64 128 -259 173 -323 70 -99 264 -288 366 -355 149 -100 313 -169 505
-214 73 -17 197 -18 2372 -18 2019 0 2441 3 2590 19 19 2 62 7 95 10 33 4 76
9 95 11 19 3 54 7 77 10 69 8 105 14 258 39 17 3 55 10 85 16 30 6 66 13 80
16 68 13 215 48 383 93 80 22 371 116 402 130 11 5 63 26 115 46 170 66 456
199 590 276 30 17 78 44 107 60 82 46 337 207 373 236 8 7 53 39 100 72 47 33
92 66 100 73 8 8 33 28 55 44 22 16 42 31 45 34 3 3 27 24 55 45 27 22 55 45
61 50 6 6 37 33 69 60 129 112 286 263 435 421 165 175 271 301 445 529 110
143 267 376 412 610 7 11 31 54 55 95 23 41 45 77 50 78 4 2 8 7 8 12 0 4 34
70 74 146 41 77 103 195 138 263 35 69 70 128 78 132 8 5 80 26 160 48 143 40
428 134 565 186 39 15 84 32 100 37 17 6 35 14 40 18 6 3 33 15 60 25 28 10
68 26 91 36 22 10 63 27 91 38 28 11 70 29 94 40 24 11 78 34 119 51 102 44
528 253 615 303 176 100 225 129 350 212 99 66 219 151 252 180 6 5 31 26 55
45 132 105 448 449 448 488 0 5 7 15 15 22 40 34 116 203 145 325 28 118 26
329 -5 450 -42 167 -132 324 -259 450 -110 108 -167 149 -296 208 -152 70
-197 79 -395 83 -161 2 -189 0 -265 -20 -90 -24 -207 -75 -330 -146 -180 -103
-340 -183 -535 -269 -27 -13 -63 -28 -80 -36 -16 -7 -55 -23 -85 -35 -30 -12
-63 -26 -72 -31 -22 -11 -22 -8 -3 73 8 35 17 79 20 98 3 19 17 94 30 165 14
72 27 147 31 169 3 21 8 48 10 60 7 32 12 65 23 136 6 36 13 74 15 85 2 11 7
43 10 70 4 28 11 75 16 105 5 30 12 72 15 94 2 21 7 55 10 75 2 20 7 56 10 81
2 25 6 54 9 66 4 18 11 75 21 169 11 104 18 151 24 161 3 7 44 54 91 105 47
51 95 104 108 117 28 31 111 127 200 231 26 30 56 65 67 77 11 12 34 39 50 60
17 20 35 42 40 48 18 20 180 222 200 250 11 15 28 37 38 49 24 29 43 53 132
172 175 232 306 422 551 795 67 103 247 408 343 580 91 166 272 523 339 670
69 153 84 187 92 205 4 11 19 45 32 75 14 30 33 78 43 105 10 28 22 55 25 60
4 6 13 28 20 50 7 22 16 45 20 50 4 6 13 26 20 45 6 19 28 78 47 130 78 214
184 547 229 715 30 115 74 291 80 320 2 11 13 63 24 115 12 52 23 106 25 120
6 39 15 91 25 145 5 28 12 70 15 95 3 25 8 52 10 60 3 8 7 38 10 65 3 28 8 70
11 95 10 75 10 82 18 165 4 44 9 94 12 110 23 160 23 1008 0 1190 -2 17 -7 71
-10 120 -4 50 -9 101 -11 115 -2 14 -7 50 -10 80 -3 30 -7 66 -10 80 -2 14 -6
50 -10 80 -6 60 -11 98 -21 163 -3 23 -8 54 -9 70 -6 43 -44 290 -49 313 -2
12 -7 37 -10 55 -3 19 -8 45 -10 59 -10 51 -38 216 -41 235 -5 30 -14 82 -30
160 -8 39 -17 86 -20 105 -3 19 -8 49 -12 65 -3 17 -7 39 -9 50 -1 11 -9 56
-18 100 -8 44 -18 94 -20 110 -6 31 -29 161 -46 250 -5 28 -12 66 -14 85 -3
19 -8 49 -11 65 -13 75 -16 98 -21 133 -2 20 -6 44 -9 52 -2 8 -7 40 -10 70
-4 30 -8 57 -10 60 -2 3 -6 33 -10 67 -3 34 -8 72 -10 85 -3 13 -7 43 -10 68
-3 25 -7 61 -10 80 -33 239 -62 644 -69 975 -4 202 11 585 29 745 2 19 7 64
11 100 11 109 12 114 18 160 9 68 45 279 56 330 6 25 13 56 16 70 2 14 7 33
10 42 3 9 6 25 8 35 20 97 110 390 142 460 7 17 14 34 14 38 0 23 149 327 186
379 43 60 136 175 178 220 16 17 49 56 75 86 25 30 54 64 64 75 61 66 191 282
245 405 96 218 119 544 58 805 -32 138 -148 373 -235 480 -67 81 -236 237
-316 291 -150 102 -349 187 -496 212 -24 4 -129 7 -234 7 -174 -1 -199 -3
-290 -27 -193 -52 -316 -108 -486 -223 -63 -43 -116 -80 -119 -84 -3 -3 -27
-24 -55 -46 -27 -22 -93 -83 -145 -135 -87 -86 -117 -118 -215 -230 -17 -19
-60 -73 -96 -120 -61 -79 -84 -111 -172 -237 -39 -56 -183 -288 -219 -353 -39
-71 -121 -220 -151 -275 -102 -189 -290 -597 -384 -833 -25 -64 -47 -118 -48
-119 -1 -2 -48 15 -106 36 -96 36 -235 78 -284 86 -11 2 -69 12 -130 24 -156
29 -246 36 -445 36 -152 0 -258 -6 -350 -20 -66 -11 -97 -16 -120 -21 -14 -3
-36 -8 -50 -10 -75 -13 -253 -63 -315 -89 -43 -18 -68 -28 -83 -31 -32 -6
-232 -104 -322 -158 -91 -54 -236 -152 -291 -198 -26 -21 -49 -38 -51 -38 -2
0 -1 33 3 73 14 137 19 243 25 582 4 187 8 341 9 342 1 2 69 5 151 7 82 2 158
6 169 8 11 3 53 11 94 18 202 34 437 141 621 283 124 96 274 257 355 381 86
133 173 335 205 481 7 28 14 59 16 70 19 80 25 382 10 480 -14 94 -17 110 -33
175 -43 177 -132 367 -238 510 -90 121 -238 272 -335 340 -19 14 -37 27 -40
30 -3 3 -27 21 -55 39 -27 18 -41 31 -30 28 130 -36 181 -42 335 -42 248 1
365 27 570 127 239 117 449 323 579 570 40 78 95 219 105 274 2 16 7 40 10 53
27 123 29 373 3 501 -40 196 -123 379 -242 534 -75 97 -292 296 -324 296 -6 0
-11 4 -11 8 0 24 -291 151 -381 166 -19 3 -70 12 -114 20 -77 13 -316 16 -360
4 -11 -3 -44 -9 -74 -13 -66 -9 -242 -65 -297 -94 -21 -12 -40 -17 -42 -12 -2
5 3 36 11 70 30 127 13 359 -35 499 -20 60 -104 220 -139 265 -60 77 -173 187
-244 236 -185 128 -364 183 -580 177 -66 -2 -131 -7 -145 -10 -13 -3 -41 -8
-62 -11 -101 -15 -257 -84 -363 -160 -82 -59 -221 -206 -272 -286 -64 -101
-107 -212 -138 -349 -22 -98 -14 -331 15 -435 58 -214 168 -383 346 -535 92
-78 290 -175 399 -195 106 -20 143 -23 260 -20 139 3 166 6 259 36 33 10 61
17 63 15 1 -1 -6 -27 -17 -58 -10 -30 -22 -70 -25 -88 -3 -18 -7 -36 -9 -39
-20 -31 -28 -326 -14 -446 13 -105 58 -257 105 -357 26 -54 51 -98 56 -98 6 0
7 -3 4 -6 -3 -4 17 -41 46 -83 63 -93 241 -274 320 -326 31 -21 56 -39 55 -41
-2 -1 -41 6 -88 16 -138 29 -187 34 -345 34 -143 1 -173 -2 -310 -25 -61 -11
-217 -58 -253 -78 -19 -10 -24 -1 -103 242 -77 237 -178 527 -198 572 -5 11
-22 54 -36 95 -15 41 -34 89 -41 105 -7 17 -27 66 -44 110 -17 44 -37 94 -45
110 -7 17 -23 54 -35 84 -11 30 -29 73 -39 95 -11 23 -30 68 -44 101 -75 179
-366 778 -480 990 -24 44 -67 125 -97 180 -46 86 -241 428 -289 507 -19 31
-136 224 -154 253 -7 11 -24 39 -39 62 -16 23 -28 44 -28 47 0 3 -13 25 -29
48 -16 24 -83 125 -149 224 -66 100 -137 206 -158 235 -103 147 -209 295 -219
306 -5 6 -37 49 -70 95 -81 112 -261 291 -364 361 -146 100 -310 169 -481 202
-104 19 -384 18 -475 -2z m-7389 -4232 c84 -78 242 -183 326 -218 138 -57 218
-71 383 -70 l152 2 -38 -45 c-34 -41 -169 -262 -169 -278 0 -4 -8 -17 -18 -29
-17 -21 -23 -22 -322 -27 -168 -3 -321 -8 -340 -10 -19 -3 -55 -8 -80 -11 -68
-9 -114 -17 -120 -20 -5 -3 4 174 15 285 4 36 8 83 10 105 2 22 6 54 9 70 2
17 8 55 11 85 4 30 8 57 10 60 2 3 6 30 10 60 3 30 13 81 21 113 7 32 14 61
14 64 0 3 13 -12 28 -33 16 -22 60 -68 98 -103z m-2732 -3318 c2 -16 5 -28 6
-28 1 0 3 -11 6 -23 4 -22 51 -203 88 -342 8 -30 24 -86 36 -125 12 -38 23
-79 25 -90 3 -11 30 -94 60 -184 30 -90 53 -166 51 -169 -3 -2 -57 -21 -120
-43 -119 -40 -245 -96 -328 -146 -59 -35 -131 -85 -139 -97 -4 -5 -10 7 -14
25 -12 57 -84 199 -183 363 -23 37 -42 70 -42 72 0 17 -129 212 -167 254 -47
51 -142 125 -199 155 -28 15 -27 15 46 16 41 0 82 2 90 4 102 20 146 31 205
52 163 58 346 173 495 311 70 64 72 64 84 -5z m-773 -2275 c0 -68 2 -132 4
-143 1 -11 5 -40 9 -65 3 -25 8 -52 9 -60 31 -134 69 -261 100 -330 131 -299
249 -475 456 -680 133 -131 130 -129 248 -207 333 -223 697 -287 1067 -188
131 35 368 167 480 268 17 15 33 27 37 27 3 0 29 -35 57 -77 48 -75 234 -369
259 -409 6 -10 56 -91 110 -179 133 -215 165 -269 203 -340 18 -33 39 -71 48
-85 35 -56 272 -518 272 -531 0 -3 -33 -19 -72 -34 -40 -15 -131 -58 -201 -94
-143 -74 -144 -75 -207 -116 -120 -80 -214 -148 -275 -200 -12 -11 -40 -33
-61 -50 -78 -61 -243 -217 -390 -369 l-150 -156 -70 21 c-128 38 -279 79 -349
94 -73 17 -220 18 -284 4 -20 -4 -48 -10 -62 -12 -169 -31 -385 -180 -504
-350 -97 -139 -144 -292 -143 -475 1 -111 5 -139 44 -290 23 -92 52 -201 64
-242 11 -41 23 -82 25 -90 2 -8 8 -30 14 -48 5 -18 10 -33 9 -35 0 -1 5 -22
12 -47 7 -25 13 -52 15 -60 2 -8 10 -40 19 -71 9 -31 18 -66 21 -77 7 -41 47
-178 65 -228 101 -278 336 -483 629 -549 92 -21 284 -16 381 10 85 22 200 77
275 130 33 24 129 113 214 199 l153 157 62 -20 c106 -33 221 -67 261 -77 6 -1
30 -7 55 -14 107 -28 325 -75 395 -85 22 -3 54 -8 70 -11 69 -13 114 -16 385
-21 157 -2 288 -8 292 -11 14 -14 20 -621 9 -892 -7 -151 -14 -293 -16 -315
-2 -22 -7 -89 -10 -150 -4 -60 -8 -123 -10 -140 -4 -26 -8 -76 -20 -205 -4
-51 -26 -231 -30 -260 -3 -14 -7 -50 -10 -80 -4 -30 -8 -62 -10 -70 -2 -8 -7
-37 -11 -65 -3 -27 -8 -59 -10 -70 -2 -11 -6 -36 -9 -55 -3 -19 -7 -46 -10
-60 -3 -14 -8 -43 -10 -65 -3 -22 -8 -48 -11 -58 -3 -10 -7 -31 -9 -48 -3 -17
-7 -38 -9 -48 -3 -9 -8 -32 -11 -51 -16 -98 -40 -190 -49 -191 -15 -1 -105
-18 -126 -24 -14 -4 -121 -26 -127 -27 -5 0 -18 -4 -31 -9 -12 -5 -33 -11 -45
-13 -12 -3 -67 -18 -122 -35 l-100 -30 -85 36 c-47 19 -132 55 -190 78 -161
66 -390 174 -500 237 -25 14 -79 44 -120 66 -209 111 -551 320 -661 405 -20
15 -38 27 -41 27 -5 0 -182 128 -233 167 -5 5 -30 24 -55 43 -25 19 -47 37
-50 41 -3 3 -27 22 -53 42 -26 20 -54 42 -61 49 -7 7 -35 31 -62 53 -146 120
-415 381 -525 509 -19 21 -43 49 -54 62 -12 12 -32 37 -45 54 -14 18 -49 62
-78 99 -110 137 -291 423 -368 581 -27 55 -122 276 -129 300 -4 14 -13 39 -20
55 -34 81 -93 273 -120 395 -13 59 -55 261 -60 290 -17 110 -43 322 -51 415
-3 50 -8 101 -10 115 -6 46 -19 463 -19 630 0 91 5 352 10 580 17 688 12 1484
-10 1710 -30 311 -32 323 -50 445 -2 17 -6 46 -9 65 -20 141 -71 408 -86 450
-5 14 -12 36 -14 50 -3 14 -9 40 -15 58 -5 18 -10 33 -9 35 1 8 -69 258 -82
292 -4 11 -27 74 -50 140 -23 66 -46 126 -50 134 -5 10 22 43 92 110 135 130
219 234 342 428 1 0 26 4 56 7 30 3 84 15 120 25 36 11 68 20 73 20 4 1 7 -54
8 -121z m14220 -2013 c79 -201 250 -478 405 -654 72 -83 237 -243 314 -307 96
-79 224 -174 234 -174 4 0 26 -13 49 -29 152 -104 501 -249 697 -290 25 -5 74
-16 110 -24 36 -8 88 -18 115 -22 28 -5 59 -10 70 -12 11 -2 119 -5 240 -7
197 -4 340 2 401 17 20 5 20 3 -6 -46 -34 -64 -96 -230 -104 -277 -3 -19 -12
-66 -20 -105 -16 -72 -17 -361 -2 -415 4 -14 9 -43 13 -65 3 -22 20 -83 37
-136 l31 -96 -60 27 c-254 114 -536 130 -794 44 -311 -104 -588 -393 -679
-709 -30 -102 -33 -126 -37 -270 -4 -134 10 -251 41 -350 21 -66 123 -275 134
-275 5 0 11 -8 14 -17 3 -10 16 -29 28 -43 67 -75 71 -57 -35 -162 -226 -222
-328 -413 -414 -773 -4 -16 -8 -379 -10 -805 l-3 -775 -33 -28 c-17 -16 -57
-50 -87 -77 -30 -27 -68 -59 -84 -71 -16 -13 -41 -34 -55 -47 -14 -14 -42 -36
-61 -51 -19 -14 -42 -33 -50 -41 -22 -20 -56 -48 -110 -90 -25 -19 -58 -47
-75 -62 -16 -15 -33 -28 -37 -28 -5 0 -16 -8 -26 -17 -24 -25 -378 -290 -557
-418 -138 -99 -216 -152 -378 -261 l-61 -41 -81 67 c-44 36 -96 77 -115 90
-19 13 -37 27 -40 30 -3 3 -41 31 -85 62 -44 31 -89 63 -101 71 -11 9 -26 35
-33 59 -7 23 -22 62 -32 85 -10 23 -19 44 -19 47 0 5 -14 35 -123 266 -64 137
-173 418 -165 425 2 2 44 12 93 24 50 12 101 26 115 30 14 5 53 17 87 26 l61
18 109 -110 c105 -107 140 -135 250 -195 52 -29 183 -81 183 -74 0 2 23 -2 51
-9 51 -14 245 -14 304 -1 17 4 49 11 71 16 54 12 185 73 244 113 67 46 176
154 224 222 49 69 110 191 125 250 14 57 86 323 115 430 14 50 45 169 70 265
41 160 45 185 44 290 -2 220 -78 412 -225 569 -106 114 -216 182 -382 239 -68
23 -92 26 -221 26 -161 1 -153 2 -339 -50 -46 -13 -89 -24 -95 -24 -7 0 -84
71 -172 158 -204 202 -297 280 -479 403 -101 68 -117 77 -243 141 l-104 52 7
44 c4 24 9 54 11 65 3 12 7 31 8 42 9 57 19 109 37 190 11 50 21 99 23 110 8
41 66 281 76 315 118 404 167 559 205 645 7 17 16 41 20 55 8 27 89 222 126
305 12 28 23 52 24 55 9 32 199 411 282 565 100 183 247 448 284 510 10 17 43
75 73 130 31 55 70 125 87 155 51 89 80 142 109 195 15 28 37 68 50 90 25 44
137 259 211 403 26 51 54 111 64 134 9 22 20 37 24 32 4 -5 19 -36 32 -69z
m-6508 -14145 l18 -30 -71 0 -72 0 22 33 c11 17 26 43 33 56 l11 23 21 -26
c11 -14 29 -39 38 -56z"/>
</g>
</svg>
