<svg xmlns="http://www.w3.org/2000/svg" width="3000" height="3000" style="shape-rendering:geometricPrecision;text-rendering:geometricPrecision;image-rendering:optimizeQuality;fill-rule:evenodd;clip-rule:evenodd"><path fill="#fefefe" d="M1764 4c46-6 85 8 117 43 107 138 186 292 240 461 23-10 48-14 74-11l23 3a131 131 0 0 1-49-151c-58 15-100-4-128-55-17-49-6-90 34-123 30-20 62-24 97-12 40 19 61 50 63 95l-2 24a129 129 0 0 1 176 65c19 50 11 95-23 137-35 36-78 49-127 39a153 153 0 0 1-92 283l-3 99a250 250 0 0 1 253-38l2-3c25-67 59-129 101-185 20-25 43-46 70-63 27-16 56-21 88-17 53 12 89 44 106 97 10 43 2 82-25 118l-34 40c-19 31-32 64-39 101a700 700 0 0 0 0 276l32 183c24 139 10 275-42 407a1145 1145 0 0 1-241 374c-7 53-15 107-25 161 34-15 67-31 99-49 46-15 84-4 116 33 17 22 23 48 19 77-4 18-11 34-23 49-26 31-57 56-92 76-66 36-135 65-207 85-39 82-91 154-155 217a543 543 0 0 1-354 145h-461a143 143 0 0 1-122-121v-130c-51 8-102 10-152 5a432 432 0 0 1-341-252c-35-21-73-37-112-47-57-15-104-1-143 41-29 21-61 27-96 19-44-13-71-42-80-86-3-23 0-45 8-66 12-27 29-50 52-69 53-46 115-77 185-92 31-5 63-7 95-6-84-64-156-139-216-224a717 717 0 0 1-126-512c8-52 17-104 27-155 5-33 8-65 8-97-1-48-13-92-37-132-10-17-23-31-38-43l-52-28c-66-36-87-90-64-161 28-58 73-83 137-76 69 14 131 45 184 92 18-11 37-18 58-20l28-2c12-18 29-29 51-34a180 180 0 0 1-105-181c9-50 37-83 85-100 23-8 47-13 73-14l52-1c5-5 11-9 18-11 10-92 36-179 77-261 12-22 26-41 45-58 28-25 62-35 101-29 56 12 91 46 104 103 17-5 35-7 53-7 23-32 53-42 92-30 16 7 29 19 38 35l19 33c18 33 15 64-9 94a78 78 0 0 1-51 22c-10 16-22 31-35 45 23-1 44 6 62 22 22-33 53-49 93-46 14-1 28 0 41 4 27-26 57-31 91-14 12 8 22 18 28 32l18 54c7 43-10 72-50 87-11 2-22 2-32 1-18 20-39 36-63 47-20 7-40 8-60 4l-21 28a86 86 0 0 1-44 22l-41 1-25 43a7904 7904 0 0 0 40 5 75 75 0 0 1 124 23l18 56c5 38-9 66-43 84-15 5-29 7-44 6-18 20-38 35-62 46l-18 5a1512 1512 0 0 1 306 590c28-113 72-218 133-316 28-44 56-87 86-129l-43-13-41 41a86 86 0 0 1-84 12c-22-9-37-24-47-44l-33-121c-5-39 8-69 41-90 18-10 38-13 59-10l51 15c32-38 68-70 109-96 21-13 44-22 69-27a462 462 0 0 1 49 2c2-41 0-81-5-121a1078 1078 0 0 0-98-332l-49-93c-9-20-15-41-19-62-6-55 14-97 61-125 14-8 28-13 44-16Zm-755 413c12 13 26 24 43 33 17 7 35 9 54 8-9 11-16 23-22 36l-52 1c-11 0-22 1-32 4 0-28 3-55 9-82ZM746 755c8 34 18 68 30 101-22 5-42 15-59 28-11-23-23-45-36-65-7-9-16-16-25-22 25-1 48-9 69-24l21-18Zm-76 221c1 71 31 127 91 166 35 20 71 23 110 10 15-7 29-16 41-26a2076 2076 0 0 1 94 161 341 341 0 0 0-133 101h-5l-41-11c-42-3-72 13-91 50-6 15-8 32-6 49l26 99a85 85 0 0 0 139 42l29-31c49 18 99 26 152 23 4 94-3 188-23 281-18 4-37 9-55 15-95-36-179-90-251-160a375 375 0 0 1-107-254l-2-60c2-64 3-129 2-193-1-71-14-139-38-204 17-16 32-33 44-53 8 0 16-2 24-5Zm1680 476c-48-21-90-14-128 22a108 108 0 0 0-1 146c-28 24-45 54-51 91l-1 153c-51 45-105 86-161 122-14-12-28-23-43-32-8-21-16-40-26-59l-9-27 34-10c12 14 26 26 44 34 49 14 86-1 110-47l25-93a85 85 0 0 0-98-98l-27 8c-23-25-47-45-74-63l-26-14c12-80 38-156 76-227l65-116 30-59a252 252 0 0 0 268 158 134 134 0 0 0-7 111Zm-914 1145 7 9h-12l5-9Z"/><path style="opacity:1" fill="#fe6099" d="M1912 1993c-50-28-102-43-158-47h-235v-1a1046 1046 0 0 1 173-741l92-136c27 1 55-1 83-7 27-9 46-27 57-53 18-65 9-125-28-181l-10-12c8-69 7-137-2-205a1189 1189 0 0 0-147-421c-8-18-14-36-18-55-3-19 2-35 15-48 29-27 61-30 94-7l24 30a1456 1456 0 0 1 219 451v6a135 135 0 0 0 33 198 829 829 0 0 1-95 442l-74 133c-41 79-68 163-79 252-20 1-38 8-52 21-23 22-38 48-46 79-9 33-9 67 2 101 9 24 27 39 52 47 16 4 32 5 49 6a411 411 0 0 0 42 118c4 9 7 19 9 30ZM1466 1876v70h-363a1136 1136 0 0 0 31-385c19-13 32-30 38-52 13-61 1-117-36-166-15-19-34-31-56-37-22-56-49-108-81-157-37-56-71-112-104-169a943 943 0 0 1-105-331c-14-132 5-258 59-378 11-24 25-46 44-64 15-13 33-17 53-12 39 13 55 40 48 82l-8 26-31 76a596 596 0 0 0 56 428c22 39 47 77 73 114l99 130a1415 1415 0 0 1 283 825Z"/><path style="opacity:1" fill="#6fc2ff" d="M2125 214c16-3 29 2 40 14 8 10 11 22 8 35-8 23-25 33-49 29-23-9-33-25-29-49 5-15 15-25 30-29Z"/><path style="opacity:1" fill="#ffcb47" d="M1169 256c7-1 12 2 16 8l23 40c2 8 0 14-7 18l-40 1c-10 21-22 40-36 58-25 23-48 22-70-4a73 73 0 0 1-15-52c3-13 10-21 23-26 6-3 13-5 21-6 19-2 39-2 60-1l17-30c2-3 5-5 8-6Z"/><path style="opacity:1" fill="#6ec2ff" d="M2278 326c36-4 61 11 76 44 9 28 3 53-18 74-30 23-60 23-90 1-28-28-32-59-11-92 11-14 25-23 43-27Z"/><path style="opacity:1" fill="#ffcb47" d="M1409 447c6-2 11 0 14 7l14 42c1 10-4 14-14 12l-33-7-31 37c-11 10-23 18-36 23-13 2-24-2-33-11a72 72 0 0 1-16-59c4-15 14-23 29-25 26-2 52 2 77 12l7-6 22-25Z"/><path style="opacity:1" fill="#ffcb46" d="M1163 491c12-2 22 2 28 13l42 73c4 15-1 26-15 32l-72 2c-16 36-36 70-61 101-10 10-21 19-32 27-10 6-21 8-31 8-26-58-41-118-45-180 16-6 32-10 50-11 29-1 58 0 87 3l4-1 32-58c4-4 8-7 13-9ZM749 541l3 101c-11 22-25 43-42 63-36 40-74 42-114 5-24-26-36-57-35-92 4-25 18-42 42-51 26-10 53-14 81-13 19 0 37 1 56 3 2-6 5-11 9-16Z"/><path style="opacity:1" fill="#6ec2ff" d="M2164 558c48-4 82 16 101 61 13 48-2 86-44 112a93 93 0 0 1-112-20c-30-39-31-78-4-118 15-19 35-31 59-35Z"/><path style="opacity:1" fill="#fe6099" d="M2377 2164a3449 3449 0 0 0 12-448c-1-8-3-15-6-21 30-57 49-118 58-181 44 9 82-1 114-32 31-36 38-77 23-121a116 116 0 0 0-138-68 232 232 0 0 0 35-375l-9-6c19-58 44-112 76-163 17-28 37-52 62-73 12-11 27-18 44-21 31-2 55 11 71 38 12 23 11 46-2 70l-35 43c-17 21-29 45-38 71-20 55-30 112-31 171a1031 1031 0 0 0 20 234l22 119c13 70 16 142 9 214-11 84-34 164-71 241-56 114-128 217-216 308Z"/><path style="opacity:1" fill="#ffcb47" d="M1249 757c7-2 14 0 18 7l15 45c2 11-2 17-13 18l-37-7c-14 20-31 38-51 52-20 12-38 9-54-7a77 77 0 0 1-15-63c5-15 15-24 31-26 13-1 26-1 40 1 12 2 25 6 38 10 9-11 18-21 28-30Z"/><path style="opacity:1" fill="#ff8346" d="M1792 811c27-3 50 7 68 28 33 41 44 88 34 140-11 37-36 57-75 58-34 1-67-2-99-11-27-7-54-16-79-26-22 21-43 42-63 64-17 9-29 5-38-11l-28-104c-2-14 3-23 15-29 4-1 8-2 13-1l85 25c26-35 56-66 90-94 22-18 48-32 77-39Z"/><path style="opacity:1" fill="#fe6099" d="M994 1972a367 367 0 0 0-214 228c-105-64-196-145-273-241-52-67-91-140-118-220-30-93-38-187-25-283 8-52 17-103 27-154 7-43 10-86 8-128-3-64-24-121-63-170-11-14-24-26-37-36l-65-36c-33-19-43-46-29-81 12-24 31-37 58-38 28 3 56 11 83 23 76 37 134 94 175 169 32 60 51 124 56 193 3 41 4 83 3 125-4 67-3 134 2 201 9 100 49 187 118 260 80 79 173 139 279 179l15 9Z"/><path style="opacity:1" fill="#ffcb47" d="M616 849c7-1 13 2 17 8l24 42c2 10-1 16-10 20l-38 1c-9 18-19 36-31 52-7 7-14 14-23 19-18-32-38-61-61-88 3-5 7-8 13-10 16-7 33-10 51-8h32l16-29c3-4 6-6 10-7Z"/><path style="opacity:1" fill="#6ec2ff" d="M2301 906c81-5 144 27 186 97a187 187 0 0 1-95 265 188 188 0 0 1-242-251c31-64 81-101 151-111Z"/><path style="opacity:1" fill="#ffcb46" d="M815 910c2-1 5 0 8 1 21 49 45 97 74 143-13 17-28 30-46 40-17 7-33 7-49 0-23-11-41-27-53-48-15-25-20-51-17-78 6-23 20-39 42-47 13-5 27-9 41-11Z"/><path style="opacity:1" fill="#6ec2ff" d="M2460 1334c42-4 69 15 81 57 4 42-15 69-55 81-32 4-56-7-74-32a70 70 0 0 1 12-88c10-9 22-15 36-18Z"/><path style="opacity:1" fill="#ff8346" d="M1039 1342c30-3 54 8 72 34 26 38 34 79 22 125a69 69 0 0 1-68 47c-33 1-64-3-95-12l-61-20c-7 4-13 10-18 16l-37 39c-18 10-31 5-39-12l-23-86c-5-17 0-28 16-35h13l71 21c24-30 51-58 81-83 19-15 41-27 66-34Z"/><path style="opacity:1" fill="#6fc2ff" d="M2290 1502c28-4 46 8 55 35 4 28-8 46-34 55-21 4-37-2-49-18-14-25-10-46 11-64 5-4 10-7 17-8Z"/><path style="opacity:1" fill="#ff8346" d="M1857 1635c17 0 33 4 48 12a314 314 0 0 1 92 84l55-16c14-3 24 2 30 16v13l-21 79c-8 13-19 16-33 11l-48-46c-30 11-61 20-93 25-16 1-32 1-47-1-23-4-39-17-47-38-11-42-4-80 22-114 11-13 25-22 42-25Z"/><path style="opacity:1" fill="#1e2441" d="M2383 1695c3 6 5 13 6 21v246a1945 1945 0 0 1-63 477c-14 44-30 88-47 132-28 62-63 120-105 173a491 491 0 0 1-383 181h-429c-41-7-65-31-72-72v-114a82 82 0 0 1 67-71c69-1 138-1 208 1 28 7 48 25 59 53l4 19v25l169-1a332 332 0 0 0 288-170c31-51 56-104 74-161 11-35 21-69 29-104a1888 1888 0 0 0 42-438v-171c5-32 22-54 52-67 44-12 77 1 101 41Z"/><path style="opacity:1" fill="#fdf767" d="M2300 1682c29-3 48 9 57 37v168c-7 24-22 37-47 39-27-3-43-17-48-43v-160c5-21 17-35 38-41Z"/><path style="opacity:1" fill="#fe6098" d="m2230 1892-2 96c-3 115-17 229-40 342-28 18-59 27-92 29 11-113-20-212-95-295 81-50 158-108 229-172Z"/><path style="opacity:1" fill="#caadbd" d="m1466 1876 1 69h52v1h-53v-70Z"/><path style="opacity:1" fill="#1e2441" d="M1103 1946h651a377 377 0 0 1 247 118 367 367 0 0 1-316 615 250 250 0 0 1-224-170 2186 2186 0 0 1-29-75l-25 83c-27 73-78 123-152 147-31 9-62 14-93 16a371 371 0 0 1-375-234 379 379 0 0 1-7-246 367 367 0 0 1 323-254Zm333 651-5 9h12l-7-9Z"/><path style="opacity:1" fill="#e5f1f4" d="M1107 2082h645a231 231 0 0 1 205 283c-19 72-61 125-127 158-60 27-121 29-183 8-20-10-35-24-46-43-13-28-24-56-33-84-10-31-27-57-49-79-34-27-72-37-114-30-39 8-68 29-88 64-5 8-9 17-12 26l-22 74c-11 43-38 69-81 79-53 12-105 10-155-8a233 233 0 0 1 60-448Z"/><path style="opacity:1" fill="#1e2441" d="M1121 2122c15-2 27 4 36 18 12 18 19 39 20 62 3 30-1 59-12 87-5 12-13 22-24 29-11 4-21 3-30-3a88 88 0 0 1-27-46c-6-30-7-59-2-88 4-21 13-39 29-54l10-5ZM1721 2122c15-2 27 4 36 18 12 18 19 39 20 62 3 30-1 59-12 87-5 12-13 22-24 29-11 4-21 3-30-3a88 88 0 0 1-27-46c-6-30-7-59-2-88 4-21 13-39 29-54l10-5Z"/><path style="opacity:1" fill="#fe6099" d="M766 2262c-9 63-2 124 21 184-45-30-94-51-145-65-29-7-58-9-86-6-43 6-80 25-109 56a52 52 0 0 1-64 1 52 52 0 0 1-13-60c9-19 21-35 37-48 46-39 99-65 160-78a461 461 0 0 1 199 16Z"/><path style="opacity:1" fill="#fefdfd" d="M2188 2330c-8 35-18 69-29 104-26-7-50-15-73-25l10-50c33-2 64-11 92-29Z"/><path style="opacity:1" fill="#fe6099" d="M2279 2571c17-44 33-88 47-132a598 598 0 0 0 211-81c23-2 39 8 47 31 2 10 0 19-6 28-16 23-37 41-60 56a847 847 0 0 1-239 98Z"/><path style="opacity:1" fill="#fe6098" d="M2086 2409c23 10 47 18 73 25-18 57-43 110-74 161-37 0-73-2-108-8 53-49 89-109 109-178Z"/><path style="opacity:1" fill="#a7a9b4" d="m1628 2741 1 24h168l-169 1v-25Z"/></svg>